<svg width="10" height="8" viewBox="0 0 10 8" fill="none" xmlns="http://www.w3.org/2000/svg">
<path d="M0.350704 5.03736C0.123573 4.81925 0.00616828 4.52911 0.000230745 4.23698C-0.00562763 3.94493 0.100061 3.65019 0.318087 3.42306C0.535955 3.19609 0.826103 3.07861 1.11815 3.07275C1.41036 3.06673 1.70494 3.1721 1.93223 3.39037L3.89454 5.27858L7.80136 0.315752L7.94133 0.422548L7.8012 0.315277C7.81237 0.300789 7.82503 0.288439 7.83913 0.278385C8.07156 0.0770627 8.36329 -0.0138212 8.64845 0.00169558V0.00137892L8.66238 0.00264559C8.94921 0.0216457 9.22938 0.149105 9.43624 0.379956C9.64667 0.614687 9.74207 0.91283 9.72615 1.20424H9.72647L9.7252 1.21818C9.70652 1.49985 9.58342 1.77512 9.36032 1.98072L4.67173 7.68788L4.67204 7.68819C4.66326 7.69936 4.65336 7.70894 4.64259 7.71733C4.42306 7.9101 4.14582 8.00462 3.87016 7.99987C3.5922 7.99505 3.3148 7.88936 3.09899 7.68194L0.350704 5.03736Z" fill="#FCFCFC"/>
</svg>
