<svg width="104" height="65" viewBox="0 0 63 32" fill="none" xmlns="http://www.w3.org/2000/svg">
<path fill="#004b87" style="fill: var(--color1, #004b87)" d="M31.324 31.437c17.227 0 31.192-6.911 31.192-15.436s-13.965-15.436-31.192-15.436c-17.227 0-31.192 6.911-31.192 15.436s13.965 15.436 31.192 15.436z"></path>
<path fill="#fdc62f" style="fill: var(--color2, #fdc62f)" d="M53.827 4.803c-5.933-2.936-13.814-4.553-22.193-4.553s-16.259 1.617-22.193 4.553c-6.004 2.971-9.311 6.948-9.311 11.198s3.307 8.227 9.311 11.198c5.933 2.936 13.814 4.553 22.193 4.553s16.26-1.617 22.193-4.553c6.004-2.971 9.31-6.948 9.31-11.198s-3.307-8.227-9.31-11.198zM53.554 26.632c-5.85 2.895-13.634 4.489-21.919 4.489s-16.070-1.594-21.92-4.489c-2.827-1.399-5.043-3.024-6.586-4.83-1.576-1.844-2.375-3.796-2.375-5.802s0.799-3.958 2.375-5.802c1.543-1.806 3.759-3.431 6.586-4.83 5.85-2.895 13.634-4.489 21.92-4.489s16.070 1.594 21.919 4.489c2.827 1.399 5.043 3.024 6.586 4.83 1.576 1.844 2.375 3.796 2.375 5.802s-0.799 3.958-2.375 5.802c-1.544 1.806-3.759 3.431-6.586 4.83z"></path>
<path fill="#fdc62f" style="fill: var(--color2, #fdc62f)" d="M8.732 15.382l-0.809 2.198-0.814-2.198h-1.046l-0.69 4.123h1.052l0.351-2.373 0.912 2.373h0.421l0.96-2.373 0.351 2.373h1.052l-0.69-4.123h-1.046z"></path>
<path fill="#fdc62f" style="fill: var(--color2, #fdc62f)" d="M11.407 19.506h2.314v-0.908h-1.257v-0.711h1.187v-0.908h-1.187v-0.689h1.257v-0.908h-2.314v4.123z"></path>
<path fill="#fdc62f" style="fill: var(--color2, #fdc62f)" d="M15.911 15.382l-1.548 4.123h1.127l0.243-0.716h1.51l0.243 0.716h1.127l-1.548-4.123h-1.154zM16.013 17.975l0.475-1.373 0.475 1.373h-0.949z"></path>
<path fill="#fdc62f" style="fill: var(--color2, #fdc62f)" d="M18.785 16.29h0.868v3.216h1.057v-3.216h0.868v-0.908h-2.794v0.908z"></path>
<path fill="#fdc62f" style="fill: var(--color2, #fdc62f)" d="M27.599 15.382l-0.809 2.198-0.814-2.198h-1.046l-0.69 4.123h1.052l0.351-2.373 0.912 2.373h0.421l0.96-2.373 0.351 2.373h1.052l-0.69-4.123h-1.046z"></path>
<path fill="#fdc62f" style="fill: var(--color2, #fdc62f)" d="M31.434 15.382l-1.548 4.123h1.127l0.243-0.716h1.51l0.243 0.716h1.127l-1.548-4.123h-1.154zM31.536 17.975l0.475-1.373 0.475 1.373h-0.949z"></path>
<path fill="#fdc62f" style="fill: var(--color2, #fdc62f)" d="M37.539 19.451l0.108-0.038v-1.269c-0.27 0.292-0.574 0.438-0.911 0.438-0.155 0-0.298-0.029-0.432-0.087s-0.249-0.139-0.348-0.241c-0.099-0.102-0.176-0.222-0.232-0.361s-0.084-0.29-0.084-0.454c0-0.16 0.028-0.31 0.084-0.448s0.132-0.258 0.229-0.358c0.097-0.1 0.213-0.18 0.348-0.238s0.281-0.087 0.44-0.087c0.359 0 0.662 0.151 0.906 0.454v-1.28c-0.173-0.073-0.337-0.127-0.494-0.161s-0.315-0.052-0.477-0.052c-0.284 0-0.556 0.054-0.814 0.161s-0.486 0.257-0.682 0.448c-0.196 0.191-0.352 0.419-0.469 0.684s-0.175 0.555-0.175 0.872c0 0.317 0.059 0.61 0.178 0.878s0.276 0.5 0.472 0.695c0.196 0.195 0.422 0.346 0.68 0.454s0.526 0.161 0.806 0.161c0.137 0 0.275-0.014 0.415-0.041s0.291-0.070 0.453-0.129z"></path>
<path fill="#fdc62f" style="fill: var(--color2, #fdc62f)" d="M41.342 16.974h-1.526v-1.591h-1.058v4.123h1.058v-1.701h1.526v1.701h1.057v-4.123h-1.057v1.591z"></path>
<path fill="#fdc62f" style="fill: var(--color2, #fdc62f)" d="M44.578 15.382h-1.058v4.123h1.058v-4.123z"></path>
<path fill="#fdc62f" style="fill: var(--color2, #fdc62f)" d="M48.71 17.903l-1.953-2.521h-1.057v4.123h1.057v-2.521l1.953 2.521h1.052v-4.123h-1.052v2.521z"></path>
<path fill="#fdc62f" style="fill: var(--color2, #fdc62f)" d="M50.883 19.506h2.314v-0.908h-1.257v-0.711h1.187v-0.908h-1.187v-0.689h1.257v-0.908h-2.314v4.123z"></path>
<path fill="#fdc62f" style="fill: var(--color2, #fdc62f)" d="M56.808 17.458c-0.16-0.195-0.413-0.351-0.758-0.468-0.086-0.029-0.173-0.056-0.261-0.082s-0.167-0.056-0.237-0.090-0.127-0.076-0.17-0.123c-0.043-0.047-0.065-0.108-0.065-0.18 0-0.106 0.043-0.191 0.13-0.257s0.198-0.098 0.334-0.098c0.108 0 0.219 0.023 0.334 0.068s0.23 0.116 0.346 0.211l0.421-0.837c-0.202-0.109-0.412-0.192-0.631-0.249s-0.43-0.085-0.631-0.085c-0.216 0-0.411 0.033-0.585 0.098s-0.322 0.158-0.443 0.276c-0.12 0.118-0.214 0.261-0.28 0.427s-0.1 0.351-0.1 0.555c0 0.204 0.032 0.373 0.094 0.506s0.146 0.243 0.248 0.331c0.102 0.087 0.219 0.158 0.351 0.21s0.265 0.101 0.402 0.145c0.115 0.040 0.213 0.077 0.294 0.109s0.147 0.068 0.197 0.107c0.050 0.038 0.086 0.080 0.108 0.126s0.032 0.099 0.032 0.161c0 0.102-0.042 0.193-0.127 0.273s-0.213 0.12-0.386 0.12c-0.151 0-0.304-0.035-0.459-0.104s-0.311-0.175-0.469-0.317l-0.453 0.864c0.439 0.31 0.915 0.465 1.429 0.465 0.248 0 0.47-0.034 0.666-0.101s0.362-0.162 0.496-0.284c0.135-0.122 0.237-0.269 0.307-0.44s0.105-0.363 0.105-0.574c0-0.313-0.080-0.568-0.24-0.763z"></path>
<path fill="#fdc62f" style="fill: var(--color2, #fdc62f)" d="M24.223 23.645c-0.052-0.017-0.104-0.034-0.157-0.049s-0.1-0.033-0.142-0.054c-0.042-0.021-0.076-0.045-0.102-0.074s-0.039-0.065-0.039-0.108c0-0.063 0.026-0.115 0.078-0.154s0.119-0.059 0.201-0.059c0.065 0 0.132 0.014 0.201 0.041s0.138 0.070 0.207 0.126l0.252-0.502c-0.121-0.066-0.247-0.115-0.379-0.149s-0.258-0.051-0.379-0.051c-0.129 0-0.247 0.020-0.351 0.059s-0.193 0.095-0.265 0.166c-0.072 0.071-0.128 0.156-0.168 0.256s-0.060 0.211-0.060 0.333c0 0.123 0.019 0.224 0.057 0.304s0.087 0.146 0.149 0.198c0.062 0.052 0.132 0.095 0.21 0.126s0.159 0.061 0.241 0.087c0.069 0.024 0.128 0.046 0.176 0.066s0.088 0.041 0.118 0.064c0.030 0.023 0.052 0.048 0.065 0.076s0.019 0.060 0.019 0.097c0 0.061-0.025 0.116-0.076 0.164s-0.128 0.072-0.231 0.072c-0.091 0-0.182-0.021-0.275-0.062s-0.187-0.105-0.282-0.19l-0.272 0.518c0.263 0.186 0.549 0.279 0.858 0.279 0.149 0 0.282-0.020 0.4-0.061s0.217-0.097 0.298-0.171c0.081-0.073 0.142-0.161 0.184-0.264s0.063-0.218 0.063-0.345c0-0.188-0.048-0.341-0.144-0.458s-0.248-0.21-0.455-0.281z"></path>
<path fill="#fdc62f" style="fill: var(--color2, #fdc62f)" d="M27.915 24.278l-0.518-1.598h-0.505l-0.518 1.598-0.421-1.598h-0.663l0.728 2.474h0.647l0.479-1.434 0.479 1.434h0.647l0.728-2.474h-0.663l-0.421 1.598z"></path>
<path fill="#fdc62f" style="fill: var(--color2, #fdc62f)" d="M29.579 25.154h1.388v-0.545h-0.754v-0.427h0.712v-0.545h-0.712v-0.413h0.754v-0.545h-1.388v2.474z"></path>
<path fill="#fdc62f" style="fill: var(--color2, #fdc62f)" d="M33.535 23.053c-0.109-0.113-0.236-0.203-0.382-0.271s-0.302-0.102-0.468-0.102h-0.939v2.474h0.939c0.168 0 0.325-0.034 0.471-0.102s0.273-0.159 0.382-0.272c0.109-0.114 0.194-0.246 0.256-0.395s0.092-0.306 0.092-0.468c0-0.164-0.031-0.321-0.094-0.471s-0.148-0.281-0.257-0.394zM33.176 24.194c-0.031 0.084-0.077 0.157-0.136 0.218s-0.132 0.109-0.218 0.144c-0.086 0.035-0.184 0.053-0.294 0.053h-0.146v-1.385h0.146c0.108 0 0.205 0.018 0.291 0.053s0.159 0.083 0.218 0.144c0.059 0.061 0.105 0.134 0.138 0.22s0.049 0.177 0.049 0.276c0 0.101-0.016 0.193-0.047 0.277z"></path>
<path fill="#fdc62f" style="fill: var(--color2, #fdc62f)" d="M34.614 25.154h1.388v-0.545h-0.754v-0.427h0.712v-0.545h-0.712v-0.413h0.754v-0.545h-1.388v2.474z"></path>
<path fill="#fdc62f" style="fill: var(--color2, #fdc62f)" d="M38.588 24.193l-1.172-1.513h-0.634v2.474h0.634v-1.513l1.172 1.513h0.631v-2.474h-0.631v1.513z"></path>
<path fill="#fdc62f" style="fill: var(--color2, #fdc62f)" d="M26.19 5.196h-0.622v6.609h3.46v-0.631h-2.838v-5.978z"></path>
<path fill="#fdc62f" style="fill: var(--color2, #fdc62f)" d="M29.141 4.566v0.631h7.627v5.978h-6.209v0.631h6.832v-7.24h-8.25z"></path>
<path fill="#fdc62f" style="fill: var(--color2, #fdc62f)" d="M31.181 10.506v-4.643l-2.128 2.896-2.128-2.896v4.643h0.622v-2.74l1.505 2.049 1.505-2.049v2.74h0.622z"></path>
<path fill="#fdc62f" style="fill: var(--color2, #fdc62f)" d="M31.856 5.885v4.55l2.128-2.537 2.128 2.537v-4.55h-0.622v2.834l-1.505-1.795-1.505 1.795v-2.834h-0.622z"></path>
</svg>