<?xml version="1.0" standalone="no"?>
<!DOCTYPE svg PUBLIC "-//W3C//DTD SVG 20010904//EN"
 "http://www.w3.org/TR/2001/REC-SVG-20010904/DTD/svg10.dtd">
<svg version="1.0" xmlns="http://www.w3.org/2000/svg"
 width="968.000000pt" height="968.000000pt" viewBox="0 0 968.000000 968.000000"
 preserveAspectRatio="xMidYMid meet">
<metadata>
Created by potrace 1.14, written by Peter Selinger 2001-2017
</metadata>
<g transform="translate(0.000000,968.000000) scale(0.100000,-0.100000)"
fill="#000000" stroke="none">
<path d="M4530 8234 c-25 -2 -115 -8 -200 -14 -1092 -76 -2152 -434 -2932
-991 -357 -255 -673 -566 -895 -879 -375 -529 -550 -1147 -492 -1736 79 -809
552 -1555 1355 -2140 1523 -1108 3949 -1354 5854 -594 1320 527 2211 1449
2414 2496 196 1016 -254 2022 -1242 2771 -792 602 -1841 975 -3017 1073 -128
11 -758 21 -845 14z m3940 -3394 l0 -2200 -2100 0 -2100 0 0 190 0 190 1910 0
1910 0 0 1820 0 1820 -2345 0 -2345 0 0 190 0 190 2535 0 2535 0 0 -2200z
m-6890 -5 l0 -1815 875 0 875 0 -2 -187 -3 -188 -1060 0 -1060 0 -3 2003 -2
2002 190 0 190 0 0 -1815z m3070 0 l0 -1405 -190 0 -190 0 -2 832 -3 832 -458
-617 c-253 -339 -463 -615 -467 -612 -5 3 -213 280 -462 615 l-453 610 -5
-828 -5 -827 -187 -3 -188 -2 0 1400 c0 770 2 1400 4 1400 3 0 296 -392 652
-871 514 -691 650 -868 658 -857 136 185 1292 1738 1294 1738 1 0 2 -632 2
-1405z m800 542 l5 -858 459 540 c252 298 460 541 461 541 2 0 209 -243 462
-540 l458 -540 5 857 5 858 188 3 187 2 0 -1377 0 -1378 -24 25 c-13 14 -304
356 -646 760 -343 404 -628 736 -634 737 -6 1 -299 -338 -651 -753 -352 -416
-643 -758 -647 -760 -5 -3 -8 614 -8 1371 l0 1375 188 -2 187 -3 5 -858z"/>
</g>
</svg>
